<svg xmlns="http://www.w3.org/2000/svg" xmlns:xlink="http://www.w3.org/1999/xlink" style="position:absolute;width:0;height:0"><defs><symbol viewBox="-4 3 30 30" id="alarm"><style>#alarm .st0{fill:#f94843}#alarm .st1{fill:none;stroke:#f94843;stroke-width:2}</style><g id="alarm_页面"><g id="alarm_发现页_新增天天特价_确认" transform="translate(-31 -1587)"><g id="alarm_商品" transform="translate(-2 1556)"><g id="alarm_Page-1"><path d="M10 29.9c-7.2 0-13-5.8-13-13 0-2 .4-3.9 1.3-5.7C.5 6.7 5 3.9 10 3.9c7.2 0 13 5.8 13 13s-5.8 13-13 13zM.1 12.1C-.7 13.6-1 15.2-1 16.9c0 6.1 4.9 11 11 11s11-4.9 11-11-4.9-11-11-11c-4.3 0-8.1 2.3-9.9 6.2z" class="st0" transform="translate(34 32)"></path><path d="M-1 12.1c-1.8-.9-3-2.7-3-4.8C-4 4.4-1.6 2 1.3 2c2 0 3.8 1.1 4.7 2.8l-1.8 1C3.7 4.7 2.5 4 1.3 4-.5 4-2 5.5-2 7.3c0 1.3.7 2.4 1.8 3l-.8 1.8zM21 11.8l-1-1.7c1-.6 1.6-1.7 1.6-2.8 0-1.8-1.5-3.3-3.3-3.3-1.3 0-2.5.8-3.1 2l-1.8-.8c.8-2 2.8-3.3 4.9-3.3 2.9 0 5.3 2.4 5.3 5.3-.1 2-1 3.7-2.6 4.6zM14.3 20.2h-4.2c-.6 0-1-.4-1-1v-8.1c0-.6.4-1 1-1s1 .4 1 1v7.1h3.2c.6 0 1 .4 1 1s-.4 1-1 1zM-1.2 32c-.2 0-.5-.1-.7-.3-.4-.4-.4-1-.1-1.4l4-4.5c.4-.4 1-.4 1.4-.1.4.4.4 1 .1 1.4l-4 4.5c-.2.3-.4.4-.7.4zM21.5 32c-.3 0-.5-.1-.7-.3l-4-4.5c-.4-.4-.3-1 .1-1.4.4-.4 1-.3 1.4.1l4 4.5c.4.4.3 1-.1 1.4-.2.1-.4.2-.7.2z" class="st0" transform="translate(34 32)"></path></g></g></g></g></symbol><symbol viewBox="0 0 35 35" id="tag"><style>#tag .st0{fill:#ff6000}</style><g id="tag_页面"><g id="tag_发现页_新增天天特价_确认" transform="translate(-267 -513)"><g id="tag_天天特价" transform="translate(-1 471)"><g id="tag_天天" transform="translate(1)"><g id="tag_title" transform="translate(221 39)"><g id="tag_Group-4"><g id="tag_Group-5" transform="translate(47)"><g id="tag_tag"><path d="M12.6 33.4c-.3 0-.5-.1-.7-.3L-.7 20.4c-.4-.4-.4-1 0-1.4L18.8-.7c.2-.2.5-.3.7-.3h12.9c.6 0 1 .4 1 1v12.3c0 .3-.1.5-.3.7L13.3 33c-.1.2-.4.3-.7.4zM1.4 19.7l11.2 11.2 18.8-19V1H20L1.4 19.7z" class="st0" transform="translate(0 4)"></path><path d="M24.8 10.9c-2.1 0-3.7-1.7-3.7-3.7s1.7-3.7 3.7-3.7 3.7 1.7 3.7 3.7-1.7 3.7-3.7 3.7zm0-5.5c-1 0-1.7.8-1.7 1.7 0 1 .8 1.7 1.7 1.7 1 0 1.7-.8 1.7-1.7 0-.9-.8-1.7-1.7-1.7zM6.9 21.9c-.3 0-.5-.1-.7-.3-.4-.4-.4-1 0-1.4l9.7-9.7c.4-.4 1-.4 1.4 0 .4.4.4 1 0 1.4l-9.7 9.7c-.2.2-.5.3-.7.3zM10.3 25.3c-.3 0-.5-.1-.7-.3-.4-.4-.4-1 0-1.4l6.5-6.5c.4-.4 1-.4 1.4 0 .4.4.4 1 0 1.4L11 25c-.2.2-.5.3-.7.3z" class="st0" transform="translate(0 4)"></path></g></g></g></g></g></g></g></g></symbol><symbol viewBox="0 0 16 25" id="tab_found_next_page"><path fill="none" fill-rule="evenodd" stroke="#CCC" stroke-linecap="round" stroke-width="3" d="M2.127 2l10.87 10.582L2.291 23.11"></path></symbol><symbol viewBox="0 0 34 33" id="nice"><g fill="#F12C2C" fill-rule="evenodd"><path d="M19.1 10s.404-1.959.685-3.294l.068-.323a472.237 472.237 0 0 1 .83-3.832l.077-.352C21.016 1.036 20.194 0 19.01 0H14.49c-.625 0-1.284.377-1.606.915l-5.742 9.57L8 10H2.003A1.995 1.995 0 0 0 0 11.999V31C0 32.106.9 33 2.003 33h23c1.548 0 3.082-1.157 3.507-2.645l4.63-16.204C33.776 11.923 32.32 10 30 10H19.1zM18 12h12c.993 0 1.488.653 1.217 1.601l-4.63 16.205c-.18.629-.929 1.194-1.584 1.194h-23L2 11.999C2 11.996 8 12 8 12h.566l.291-.486 5.743-9.57c-.037.061-.028.056-.109.056h4.518c-.1 0-.22-.152-.202-.233l-.078.354a513.863 513.863 0 0 0-.832 3.848l-.069.325c-.284 1.349-.51 2.46-.657 3.255-.087.465-.146.818-.177 1.058a2.394 2.394 0 0 0-.026.41c.004.078.004.078.027.21.039.185.039.185.349.563.717.292.656.21.656.21z"></path><path d="M7 10h2v22H7z"></path></g></symbol><symbol viewBox="0 0 34 34" id="recommend"><style>#recommend .st0{fill-rule:evenodd;clip-rule:evenodd;fill:#ff6000}</style><g id="recommend_XMLID_1_"><path id="recommend_XMLID_9_" d="M32.5 10.1c-.2-.5-.8-.7-1.3-.5-.5.2-.7.8-.5 1.3.9 1.9 1.3 4 1.3 6.1 0 8.3-6.7 15-15 15S2 25.3 2 17c0-2.7.7-5.2 2-7.4 1.1 0 2-.9 2-2 0-.2 0-.4-.1-.6C8.6 4 12.6 2 17 2c1.9 0 3.7.3 5.4 1 .5.2 1.1-.1 1.3-.6.2-.5-.1-1.1-.6-1.3-2-.7-4-1.1-6.1-1.1-5 0-9.5 2.2-12.6 5.6H4c-1.1 0-2 .9-2 2 0 .4.1.7.3 1C.8 11.1 0 13.9 0 17c0 9.4 7.6 17 17 17s17-7.6 17-17c0-2.4-.5-4.7-1.5-6.9z" class="st0"></path><circle id="recommend_XMLID_10_" cx="27.5" cy="5.8" r="1.5" class="st0"></circle><path id="recommend_XMLID_13_" d="M12 24.3c.4 0 .8-.1 1.2-.3 1.1.6 2.4 1 3.8 1 4.4 0 8-3.6 8-8s-3.6-8-8-8-8 3.6-8 8c0 .9.2 1.9.5 2.7-.3.5-.5 1-.5 1.6 0 1.7 1.3 3 3 3zM17 11c3.3 0 6 2.7 6 6s-2.7 6-6 6c-.8 0-1.6-.2-2.3-.5.2-.4.3-.8.3-1.2 0-1.7-1.3-3-3-3-.3 0-.6.1-.8.1-.1-.4-.2-.9-.2-1.4 0-3.3 2.7-6 6-6z" class="st0"></path></g></symbol><symbol viewBox="0 0 18 18" id="icon_shop"><path fill="#888" fill-rule="evenodd" d="M15 6.15a1.745 1.745 0 0 1-1.737 1.601l-.074-.002a1.749 1.749 0 0 1-1.628-1.33.499.499 0 0 0-.488-.406h-.39a.498.498 0 0 0-.49.417 1.744 1.744 0 0 1-1.649 1.32H8.47l-.064-.002a1.057 1.057 0 0 1-.058-.004l-.09-.01A1.748 1.748 0 0 1 6.802 6.41a.499.499 0 0 0-.487-.397h-.39a.497.497 0 0 0-.487.397 1.75 1.75 0 0 1-1.362 1.308L4 7.732a3.84 3.84 0 0 1-.08.01l-.065.005-.06.003-.054.001c-.935 0-1.7-.74-1.741-1.668V2h13v4.15zm-14.998.1L0 6.252a3.314 3.314 0 0 0 3.31 3.318c1.05 0 2.01-.23 2.615-.994.606.765 1.518.994 2.568.994s1.812-.366 2.418-1.131c.606.765 1.716 1.131 2.766 1.131a3.314 3.314 0 0 0 3.309-3.251.49.49 0 0 0 .014-.11V1.435A1.462 1.462 0 0 0 15.571 0H1.417A1.442 1.442 0 0 0 0 1.435v4.816zm14 10.75H2.999A2.004 2.004 0 0 1 1 14.994v-2.979a1 1 0 1 1 2 0v2.979L14.002 15 14 12a1 1 0 1 1 2 0v2.99c0 1.109-.896 2.01-1.998 2.01z"></path></symbol><symbol viewBox="0 0 18 18" id="shop"><path fill-rule="evenodd" d="M15 6.15a1.745 1.745 0 0 1-1.737 1.6h-.074a1.75 1.75 0 0 1-1.63-1.33.5.5 0 0 0-.487-.407h-.39a.495.495 0 0 0-.49.417 1.748 1.748 0 0 1-1.65 1.32H8.47c-.04 0-.052 0-.064-.002a.528.528 0 0 1-.058-.004l-.09-.01A1.748 1.748 0 0 1 6.802 6.41a.5.5 0 0 0-.487-.397h-.39c-.24 0-.44.17-.487.397a1.75 1.75 0 0 1-1.363 1.308L4 7.732a3.84 3.84 0 0 1-.08.01l-.065.005-.06.003H3.74A1.744 1.744 0 0 1 2 6.083V2h13v4.15zm-14.998.1H0a3.314 3.314 0 0 0 3.31 3.32c1.05 0 2.01-.23 2.615-.995.606.765 1.518.994 2.568.994s1.812-.367 2.418-1.132c.607.765 1.717 1.13 2.767 1.13a3.314 3.314 0 0 0 3.31-3.25.49.49 0 0 0 .013-.11V1.435A1.462 1.462 0 0 0 15.57 0H1.418A1.442 1.442 0 0 0 0 1.435v4.773c0 .015 0 .03.002.043zm14 10.75H3c-1.103 0-2-.9-2-2.006v-2.98a1 1 0 1 1 2 0v2.98L14.002 15 14 12a1 1 0 1 1 2 0v2.99c0 1.11-.896 2.01-1.998 2.01z"></path></symbol></defs></svg>