<svg xmlns="http://www.w3.org/2000/svg" xmlns:xlink="http://www.w3.org/1999/xlink" viewBox="0 0 706 88"><defs><rect id="b" width="702" height="84" rx="4"></rect><filter id="a" width="101%" height="108.3%" x="-.5%" y="-3%" filterUnits="objectBoundingBox"><feOffset dy="1" in="SourceAlpha" result="shadowOffsetOuter1"></feOffset><feGaussianBlur in="shadowOffsetOuter1" result="shadowBlurOuter1" stdDeviation="1"></feGaussianBlur><feColorMatrix in="shadowBlurOuter1" values="0 0 0 0 0 0 0 0 0 0 0 0 0 0 0 0 0 0 0.1 0"></feColorMatrix></filter></defs><g fill="none" fill-rule="evenodd"><g transform="translate(2 1)"><use fill="#000" filter="url(#a)" xlink:href="#b"></use><use fill="#FFF" xlink:href="#b" data-spm-anchor-id="eleme.11839388.0.i3"></use></g><text fill="#666" font-family="PingFangSC-Regular, PingFang SC" font-size="20" transform="translate(2 1)"><tspan x="530" y="51" data-spm-anchor-id="eleme.11839388.0.i4">10元现金拿不停</tspan></text><text fill="#333" font-family="PingFangSC-Medium, PingFang SC" font-size="28" font-weight="400" transform="translate(2 1)"><tspan x="68" y="54">推荐有奖</tspan></text><path fill="#979797" fill-rule="nonzero" d="M676.806 50.843a1.14 1.14 0 0 0 1.61 0l6.812-6.812a1 1 0 0 0 0-1.414l-6.811-6.811a1.14 1.14 0 1 0-1.611 1.61l5.907 5.908-5.907 5.908a1.14 1.14 0 0 0 0 1.611z"></path><path d="M26 27h32v32H26z"></path><path fill="#FC7B53" d="M43 34c-.167-.434-1-1-1-1-.275.437-.767.601-1 1v7H26v-6c0-.843.716-1.562 2-2h6c-1.49.06-2.84-.711-3-2 .06-1.814 1.949-4.528 5-4 2.552.733 4.541 2.943 6 5 1.6-2.094 3.778-4.58 7-5 2.23-.288 4.282 2.198 4 4-.208 1.276-1.582 2.06-3 2h6c1.173.437 1.89 1.156 2 2v6H43v-7zm-7-6c-1.123-.321-1.966.238-3 1 .097.68-.258 1.373 0 2 1.653 1.192 5.452 1.096 8 1-1.202-1.529-2.679-3.07-5-4zm16 3c.726-1.246-1.22-3.714-3-3-2.313 1.075-3.755 2.506-5 4 1.071 0 2.158.023 3 0 1.542-.075 3.965-.16 5-1zM41 58H30c-1.326-.255-2-.907-2-2V42h13v16zm13 0H43V42h13v14c-.47 1.53-1.124 1.745-2 2z"></path></g></svg>