<svg xmlns="http://www.w3.org/2000/svg" xmlns:xlink="http://www.w3.org/1999/xlink" style="position:absolute;width:0;height:0"><defs><symbol viewBox="0 0 32 32" id="success"><path fill="#FEF0CA" fill-rule="nonzero" d="M16 32C7.17 32 0 24.83 0 16S7.17 0 16 0s16 7.17 16 16-7.17 16-16 16zm-2.074-9.719c.533 0 1.067-.177 1.481-.592l7.941-7.94c.83-.83.83-2.134 0-2.964a2.075 2.075 0 0 0-2.963 0l-6.518 6.519-2.311-2.311c-.83-.83-2.134-.83-2.904 0-.83.83-.83 2.133 0 2.903l3.792 3.793c.415.415.949.592 1.482.592z"></path></symbol><symbol viewBox="0 0 32 32" id="success"><path fill="#FEF0CA" fill-rule="nonzero" d="M16 32C7.17 32 0 24.83 0 16S7.17 0 16 0s16 7.17 16 16-7.17 16-16 16zm-2.074-9.719c.533 0 1.067-.177 1.481-.592l7.941-7.94c.83-.83.83-2.134 0-2.964a2.075 2.075 0 0 0-2.963 0l-6.518 6.519-2.311-2.311c-.83-.83-2.134-.83-2.904 0-.83.83-.83 2.133 0 2.903l3.792 3.793c.415.415.949.592 1.482.592z"></path></symbol><symbol xmlns:xlink="http://www.w3.org/1999/xlink" viewBox="0 0 640 64" id="arc-cover"><defs><linearGradient id="arc-cover_a" x1="100%" x2="0%" y1="50%" y2="50%"><stop offset="0%" stop-opacity=".05"></stop><stop offset="49.809%" stop-opacity=".1"></stop><stop offset="100%" stop-opacity=".05"></stop></linearGradient><linearGradient id="arc-cover_d" x1="100%" x2="1.25%" y1="50%" y2="50%"><stop offset="0%" stop-color="#DC1E36"></stop><stop offset="100%" stop-color="#FD4E4C"></stop></linearGradient><path id="arc-cover_c" d="M0 13c86.885 32.667 193.219 49 319 49s232.781-16.333 321-49v360c0 13.255-10.745 24-24 24H24c-13.255 0-24-10.745-24-24V13z"></path><filter id="arc-cover_b" width="107.3%" height="112.2%" x="-3.7%" y="-6.6%" filterUnits="objectBoundingBox"><feOffset dy="-2" in="SourceAlpha" result="shadowOffsetOuter1"></feOffset><feGaussianBlur in="shadowOffsetOuter1" result="shadowBlurOuter1" stdDeviation="7.5"></feGaussianBlur><feColorMatrix in="shadowBlurOuter1" values="0 0 0 0 0 0 0 0 0 0 0 0 0 0 0 0 0 0 0.1 0"></feColorMatrix></filter></defs><g fill="none" fill-rule="evenodd"><path fill="url(#arc-cover_a)" d="M0 10c86.885 30.667 193.219 46 319 46s232.781-15.333 321-46v313c0 13.255-10.745 24-24 24H24c-13.255 0-24-10.745-24-24V10z"></path><use fill="#000" filter="url(#arc-cover_b)" xlink:href="#arc-cover_c"></use><use fill="url(#arc-cover_d)" xlink:href="#arc-cover_c"></use></g></symbol><symbol viewBox="0 0 1024 1024" id="res-x"><path fill-rule="evenodd" d="M480.518 512L8.377 984.141c-8.853 8.853-8.777 22.871-.083 31.565 8.754 8.754 22.825 8.656 31.565-.083L512 543.482l472.141 472.141c8.853 8.853 22.871 8.777 31.565.083 8.754-8.754 8.656-22.825-.083-31.565L543.482 512l472.141-472.141c8.853-8.853 8.777-22.871.083-31.565-8.754-8.754-22.825-8.656-31.565.083L512 480.518 39.859 8.377C31.006-.476 16.988-.4 8.294 8.294c-8.754 8.754-8.656 22.825.083 31.565L480.518 512z" class="path1 fill-color3"></path></symbol><symbol viewBox="0 0 8 12" id="svip-down"><path fill="#F2DD7D" fill-rule="nonzero" d="M2.07 0v6.018H0l4 5.459 4-5.459H5.93V0H2.07z"></path></symbol><symbol viewBox="0 0 10 8" id="svip-crown"><path fill="#F2DD7D" fill-rule="evenodd" d="M7.11 2.688L5.143.072a.177.177 0 0 0-.286 0L2.89 2.69a.709.709 0 0 1-.991.152L.286 1.662a.177.177 0 0 0-.253.044.193.193 0 0 0-.03.14L.97 7.505a.37.37 0 0 0 .287.302c1.261.259 6.238.259 7.48 0a.37.37 0 0 0 .285-.301l.975-5.67a.187.187 0 0 0-.147-.218.177.177 0 0 0-.137.032L8.104 2.838a.709.709 0 0 1-.994-.15z"></path></symbol><symbol viewBox="0 0 13 10" id="svip-icon"><defs><linearGradient id="svip-icon_a" x1="100%" x2="0%" y1="50%" y2="50%"><stop offset="0%" stop-color="#FDBD05"></stop><stop offset="100%" stop-color="#FFDB72"></stop></linearGradient></defs><path fill="url(#svip-icon_a)" fill-rule="evenodd" d="M9.354 3.36L6.894.09a.222.222 0 0 0-.357 0l-2.46 3.273a.886.886 0 0 1-1.24.19L.823 2.076a.222.222 0 0 0-.316.055.24.24 0 0 0-.038.177l1.21 7.07c.032.19.174.34.358.378 1.576.324 7.797.324 9.35.001a.462.462 0 0 0 .356-.377l1.219-7.088a.234.234 0 0 0-.183-.272.22.22 0 0 0-.172.04l-2.012 1.486a.886.886 0 0 1-1.241-.187z"></path></symbol><symbol xmlns:xlink="http://www.w3.org/1999/xlink" viewBox="0 0 24 24" id="gray-close"><defs><path id="gray-close_a" d="M13.132 12l6.47-6.47a.75.75 0 0 0-1.061-1.06l-6.47 6.47-6.47-6.47a.75.75 0 0 0-1.06 1.06L11.01 12l-.072.071.071.071-6.47 6.47a.75.75 0 0 0 1.061 1.06l6.47-6.47 6.47 6.47a.75.75 0 0 0 1.06-1.06l-6.47-6.47.072-.07-.071-.072z"></path></defs><g fill="none" fill-rule="evenodd"><use fill="#000" fill-opacity=".54" fill-rule="nonzero" xlink:href="#gray-close_a"></use><path d="M0 0h24v24H0z"></path></g></symbol><symbol xmlns:xlink="http://www.w3.org/1999/xlink" viewBox="0 0 198 125" id="purchase-hongbao"><defs><filter id="purchase-hongbao_a" width="126%" height="319.4%" x="-13%" y="-109.7%" filterUnits="objectBoundingBox"><feGaussianBlur in="SourceGraphic" stdDeviation="6.766"></feGaussianBlur></filter><linearGradient id="purchase-hongbao_c" x1="50%" x2="50%" y1="0%" y2="100%"><stop offset="0%" stop-color="#FE4A2F"></stop><stop offset="50.116%" stop-color="#FF6543"></stop><stop offset="100%" stop-color="#FE7F58"></stop></linearGradient><path id="purchase-hongbao_b" d="M0 .09h123.598v97.524c-1.586 6.558-30.032 26.389-61.174 26.389C31.28 124.003 1.71 106.307 0 97.614V.09z"></path><filter id="purchase-hongbao_d" width="101.6%" height="101.6%" x="-.8%" y="-.8%" filterUnits="objectBoundingBox"><feGaussianBlur in="SourceAlpha" result="shadowBlurInner1" stdDeviation=".5"></feGaussianBlur><feOffset dy="-1" in="shadowBlurInner1" result="shadowOffsetInner1"></feOffset><feComposite in="shadowOffsetInner1" in2="SourceAlpha" k2="-1" k3="1" operator="arithmetic" result="shadowInnerInner1"></feComposite><feColorMatrix in="shadowInnerInner1" values="0 0 0 0 0.988235294 0 0 0 0 0.512982204 0 0 0 0 0.345098039 0 0 0 1 0"></feColorMatrix></filter><filter id="purchase-hongbao_e" width="108.1%" height="108.3%" x="-4%" y="-4.2%" filterUnits="objectBoundingBox"><feGaussianBlur in="SourceGraphic" stdDeviation="1.652"></feGaussianBlur></filter><linearGradient id="purchase-hongbao_g" x1="0%" x2="93.762%" y1="3.756%" y2="133.128%"><stop offset="0%" stop-color="#FDF3C7"></stop><stop offset="100%" stop-color="#E9D373"></stop></linearGradient><path id="purchase-hongbao_h" d="M97.932 112.043a6.999 6.999 0 0 0-6.995 7.003H6.995A6.999 6.999 0 0 0 0 112.043V7.003A6.999 6.999 0 0 0 6.995 0h83.942a6.999 6.999 0 0 0 6.995 7.003v105.04z"></path><path id="purchase-hongbao_i" d="M93.735 104.728c-3.477 0-6.295 2.803-6.295 6.261H11.892c0-3.458-2.819-6.26-6.296-6.26v-93.92c3.477 0 6.296-2.803 6.296-6.26H87.44c0 3.457 2.818 6.26 6.295 6.26v93.92z"></path><linearGradient id="purchase-hongbao_k" x1="71.529%" x2="17.287%" y1="39.262%" y2="95.852%"><stop offset="0%" stop-color="#FFF1B5" stop-opacity="0"></stop><stop offset="100%" stop-color="#FFF1B7"></stop></linearGradient><linearGradient id="purchase-hongbao_l" x1="71.529%" x2="30.494%" y1="39.262%" y2="78.22%"><stop offset="0%" stop-color="#FFDE52" stop-opacity="0"></stop><stop offset="100%" stop-color="#FFD353"></stop></linearGradient><linearGradient id="purchase-hongbao_m" x1="70.057%" x2="17.36%" y1="21.033%" y2="88.7%"><stop offset="0%" stop-color="#F9F0C1" stop-opacity="0"></stop><stop offset="100%" stop-color="#FFF7D9"></stop></linearGradient><path id="purchase-hongbao_n" d="M0 0h122.416v43.2H0z"></path><filter id="purchase-hongbao_o" width="116.2%" height="118.4%" x="-8.1%" y="-9.2%" filterUnits="objectBoundingBox"><feGaussianBlur in="SourceGraphic" stdDeviation="3.304"></feGaussianBlur></filter><linearGradient id="purchase-hongbao_q" x1="50%" x2="50%" y1="25.55%" y2="100%"><stop offset="0%" stop-color="#FE7752"></stop><stop offset="100%" stop-color="#FE3341"></stop></linearGradient><linearGradient id="purchase-hongbao_r" x1="50%" x2="50%" y1="0%" y2="88.58%"><stop offset="0%" stop-color="#FFF" stop-opacity="0"></stop><stop offset="100%" stop-color="#FFF"></stop></linearGradient></defs><g fill="none" fill-rule="evenodd" transform="translate(1 1)"><ellipse cx="97.501" cy="122.75" fill="#FF5C3C" filter="url(#purchase-hongbao_a)" opacity=".3" rx="78.051" ry="9.25"></ellipse><g transform="translate(36.407 .063)"><mask id="purchase-hongbao_f" fill="#fff"><use xlink:href="#purchase-hongbao_b"></use></mask><g transform="matrix(1 0 0 -1 0 124.092)"><use fill="url(#purchase-hongbao_c)" xlink:href="#purchase-hongbao_b"></use><use fill="#000" filter="url(#purchase-hongbao_d)" xlink:href="#purchase-hongbao_b"></use></g><path fill="#DA461B" d="M0 93.47c18.528 7.2 38.3 10.8 59.314 10.8 21.014 0 42.048-3.6 63.102-10.8v115.497a3.304 3.304 0 0 1-3.305 3.304H3.304A3.304 3.304 0 0 1 0 208.967V93.471z" filter="url(#purchase-hongbao_e)" mask="url(#purchase-hongbao_f)"></path></g><g transform="translate(48.649 35.851)"><use fill="url(#purchase-hongbao_g)" xlink:href="#purchase-hongbao_h"></use><mask id="purchase-hongbao_j" fill="#fff"><use xlink:href="#purchase-hongbao_i"></use></mask><path stroke="#643B0C" stroke-width="1.688" d="M92.891 103.933V11.604c-3.266-.383-5.859-2.96-6.246-6.212H12.686c-.387 3.252-2.98 5.83-6.246 6.212v92.33c3.267.382 5.86 2.96 6.246 6.211h73.96c.386-3.251 2.979-5.829 6.245-6.212z" opacity=".04"></path><g mask="url(#purchase-hongbao_j)"><path fill="url(#purchase-hongbao_k)" d="M173.48 9.804v110.643H62.957z" opacity=".243" transform="translate(-27.98 9.804)"></path><path fill="url(#purchase-hongbao_l)" d="M167.884 36.414v84.033H89.538z" opacity=".119" transform="translate(-27.98 9.804)"></path><path fill="url(#purchase-hongbao_l)" d="M153.894 36.414v84.033H75.548z" opacity=".119" transform="translate(-27.98 9.804)"></path><path fill="url(#purchase-hongbao_m)" d="M101.627 0h27.084L27.084 110.643H0z" opacity=".2" transform="translate(-27.98 9.804)"></path><path fill="url(#purchase-hongbao_m)" d="M126.81 0h27.084L52.267 110.643H25.183z" opacity=".4" transform="translate(-27.98 9.804)"></path></g></g><g transform="translate(36.407 80.524)"><mask id="purchase-hongbao_p" fill="#fff"><use xlink:href="#purchase-hongbao_n"></use></mask><path fill="#E13211" d="M0 8.1c18.528 7.2 38.3 10.8 59.314 10.8 21.014 0 42.048-3.6 63.102-10.8v104.696a3.304 3.304 0 0 1-3.305 3.305H3.304A3.304 3.304 0 0 1 0 112.796V8.1z" filter="url(#purchase-hongbao_o)" mask="url(#purchase-hongbao_p)" opacity=".2"></path></g><path fill="url(#purchase-hongbao_q)" d="M0 91.09c18.707 7.131 38.67 10.697 59.887 10.697s42.454-3.566 63.71-10.697v66.087a6.609 6.609 0 0 1-6.608 6.608H6.609A6.609 6.609 0 0 1 0 157.177V91.09z" transform="translate(36.407 .063)"></path><path fill="url(#purchase-hongbao_r)" d="M18.952 123H176.55v41.5H18.952z"></path><path fill="#FFF" fill-opacity=".9" d="M0 122h196v42H0z"></path><path fill="#FFF" fill-opacity=".9" d="M0 122h196v1H0z"></path></g></symbol><symbol xmlns:xlink="http://www.w3.org/1999/xlink" viewBox="0 0 193 49" id="purchase-title"><defs><path id="purchase-title_b" d="M163.666 41.442l-128.848.798-.05 3.513H3.392l10.176-17.808L2.544 10.136l18.21-.028 1.294-7.604 162.819.672-.566 5.088h1.083l-2.09 9.07-1.096 9.863 6.06 16.532h-24.592v-2.287z"></path><filter id="purchase-title_a" width="103.8%" height="116.2%" x="-1.9%" y="-5.8%" filterUnits="objectBoundingBox"><feOffset dy="1" in="SourceAlpha" result="shadowOffsetOuter1"></feOffset><feGaussianBlur in="shadowOffsetOuter1" result="shadowBlurOuter1" stdDeviation="1"></feGaussianBlur><feColorMatrix in="shadowBlurOuter1" values="0 0 0 0 0.852306548 0 0 0 0 0.774469176 0 0 0 0 0.479506507 0 0 0 1 0"></feColorMatrix></filter><linearGradient id="purchase-title_c" x1="24.228%" x2="50%" y1="0%" y2="50%"><stop offset="0%" stop-color="#FFF2BB"></stop><stop offset="100%" stop-color="#F5DB90"></stop></linearGradient><linearGradient id="purchase-title_d" x1="100%" y1="100%" y2="0%"><stop offset="0%" stop-color="#C1B06F"></stop><stop offset="100%" stop-color="#8E793C"></stop></linearGradient><linearGradient id="purchase-title_e" x1="115.099%" x2="-56.638%" y1="50%" y2="50%"><stop offset="0%" stop-color="#FCE9C2"></stop><stop offset="100%" stop-color="#EFCD85"></stop></linearGradient><linearGradient id="purchase-title_f" x1="121.235%" x2="-15.163%" y1="83.288%" y2="31.722%"><stop offset="0%" stop-color="#FCE9C2"></stop><stop offset="100%" stop-color="#EFCD85"></stop></linearGradient></defs><g fill="none" fill-rule="evenodd"><g opacity=".157" transform="translate(.5 .5)"><use fill="#000" filter="url(#purchase-title_a)" xlink:href="#purchase-title_b"></use><use fill="#DECF87" xlink:href="#purchase-title_b"></use></g><path fill="url(#purchase-title_c)" d="M0 6.744h32V42H0l11.024-17.447z" transform="translate(.5 .5)"></path><path fill="url(#purchase-title_d)" d="M15.264 38H32v4z" transform="translate(.5 .5)"></path><path fill="url(#purchase-title_e)" d="M164.819 3H192v37h-28l6.551-19.42z" transform="matrix(-1 0 0 1 356.5 .5)"></path><path fill="url(#purchase-title_f)" d="M22 0h154l-5 38H15z" transform="translate(.5 .5)"></path><path fill="url(#purchase-title_d)" d="M164 38v2l7-2z" transform="translate(.5 .5)"></path></g></symbol><symbol viewBox="0 0 17 17" id="like"><path fill="#999" d="M15.744 7.319a1.705 1.705 0 0 0-1.382-.79.476.476 0 0 0-.085-.008l-2.837-.003c.216-.612.303-1.227.303-1.911 0-.444-.08-.942-.267-1.333C11.11 2.504 10.427 2 9.636 2a1.655 1.655 0 0 0-1.658 1.792c-.05 1.745-1.438 3.16-3.186 3.284v.01l-2.144.005a.569.569 0 0 0-.643.56L2 14.435a.569.569 0 0 0 .663.558H5.02a.477.477 0 0 0 .171 0l7.953.002v.003c.311 0 .628-.085.91-.26.268-.167.469-.4.602-.66a.543.543 0 0 0 .083-.176l1.239-5.39a.551.551 0 0 0 .017-.192 1.618 1.618 0 0 0-.25-1.001zm-12.627.869l1.651-.004v5.71H3.113l.004-5.706zm11.768.053a1.065 1.065 0 0 0-.002.07l-1.205 5.244-.015.028a.552.552 0 0 1-.2.224l-.006.003a.589.589 0 0 1-.313.087l-7.263-.002V7.986a4.481 4.481 0 0 0 3.21-4.163c0-.047-.001-.095-.006-.142a.55.55 0 0 1 .551-.583.74.74 0 0 1 .432.143c.16.114.3.287.402.501.099.207.16.538.16.865 0 .592-.077 1.085-.24 1.55a1.08 1.08 0 0 0 .143.997c.208.29.546.462.906.462l2.793.003.084.006a.592.592 0 0 1 .49.284c.077.12.086.247.08.332z"></path></symbol><symbol viewBox="0 0 12 12" id="search"><g fill="none" fill-rule="evenodd"><path fill="#F5F5F5" d="M-179-10h375v805h-375z"></path><path fill="#FFF" d="M-179 0h375v22h-375z"></path><text font-family="PingFangSC-Regular, PingFang SC" font-size="11" transform="translate(-179)"><tspan x="179.5" y="16" fill="#333">黄焖鸡</tspan> <tspan x="212.5" y="16" fill="#999">标准份</tspan></text><g><path fill="#FFF" d="M-179-11h375v44h-375z"></path><path fill="#F5F5F5" d="M-167-3h351a2 2 0 0 1 2 2v24a2 2 0 0 1-2 2h-351a2 2 0 0 1-2-2V-1a2 2 0 0 1 2-2z"></path><path fill="#999" fill-rule="nonzero" d="M11.255 5.338C11.11 2.475 8.787.152 5.924.008A5.632 5.632 0 0 0 .008 5.926c.145 2.845 2.44 5.158 5.284 5.325a5.636 5.636 0 0 0 2.24-.319.507.507 0 1 0-.342-.954 4.622 4.622 0 0 1-1.839.261c-2.327-.137-4.211-2.036-4.33-4.365A4.618 4.618 0 0 1 5.871 1.02c2.344.119 4.251 2.026 4.37 4.37a4.602 4.602 0 0 1-1.275 3.434.62.62 0 0 0 .007.866l2.16 2.16a.507.507 0 1 0 .718-.716L9.956 9.238a5.615 5.615 0 0 0 1.3-3.9z"></path></g></g></symbol><symbol viewBox="0 0 20 20" id="select"><path d="M17.595 3.494A9.978 9.978 0 0 0 10 0C4.477 0 0 4.477 0 10s4.477 10 10 10 10-4.477 10-10c0-1.631-.39-3.171-1.083-4.532l-9.973 9.608-4.715-4.714 1.653-1.653 3.062 3.062 8.65-8.277z"></path></symbol><symbol xmlns:xlink="http://www.w3.org/1999/xlink" viewBox="0 0 24 24" id="down-no-fill"><defs><path id="down-no-fill_a" d="M8.818 12.235l7.955-7.955a.75.75 0 0 0-1.06-1.06l-8.486 8.485a.75.75 0 0 0 0 1.06l8.485 8.486a.75.75 0 1 0 1.061-1.06l-7.955-7.956z"></path></defs><g fill="none" fill-rule="evenodd" transform="rotate(-90 12.01 12.01)"><use fill="#000" fill-opacity=".54" fill-rule="nonzero" xlink:href="#down-no-fill_a"></use><path d="M0 0h24v24H0z"></path></g></symbol></defs></svg>